<svg xmlns="http://www.w3.org/2000/svg" width="215.351" height="215.346" viewBox="0 0 215.351 215.346">
  <g id="icon-full-screen" transform="translate(0 -0.002)">
    <path id="Path_8" data-name="Path 8" d="M7.5,65.088a7.5,7.5,0,0,0,7.5-7.5V25.61L63.305,73.9A7.5,7.5,0,1,0,73.911,63.3L25.6,15H57.589a7.5,7.5,0,1,0,0-15H7.5A7.5,7.5,0,0,0,0,7.5V57.589A7.5,7.5,0,0,0,7.5,65.088Z" fill="#00326e"/>
    <path id="Path_9" data-name="Path 9" d="M207.85,150.262a7.5,7.5,0,0,0-7.5,7.5v31.979l-49.792-49.792a7.5,7.5,0,0,0-10.607,10.606l49.791,49.791H157.765a7.5,7.5,0,0,0,0,15h50.086a7.5,7.5,0,0,0,7.5-7.5V157.762A7.5,7.5,0,0,0,207.85,150.262Z" fill="#00326e"/>
    <path id="Path_10" data-name="Path 10" d="M64.792,139.949,15.005,189.74V157.762a7.5,7.5,0,0,0-15,0v50.086a7.5,7.5,0,0,0,7.5,7.5H57.589a7.5,7.5,0,1,0,0-15H25.611L75.4,150.555a7.5,7.5,0,0,0-10.607-10.606Z" fill="#00326e"/>
    <path id="Path_11" data-name="Path 11" d="M207.85,0H157.764a7.5,7.5,0,1,0,0,15h31.979l-48.3,48.3a7.5,7.5,0,0,0,10.608,10.606l48.3-48.3v31.98a7.5,7.5,0,0,0,15,0V7.5A7.5,7.5,0,0,0,207.85,0Z" fill="#00326e"/>
  </g>
</svg>
