<svg xmlns="http://www.w3.org/2000/svg" width="24" height="24" viewBox="0 0 24 24">
    <defs>
        <style>
            .cls-1{fill:none}.cls-2{clip-path:url(#clip-path)}.cls-3{clip-path:url(#clip-path-2)}.cls-4{fill:#fff}.cls-5{clip-path:url(#clip-path-3)}.cls-6{clip-path:url(#clip-path-5)}
        </style>
        <clipPath id="clip-path">
            <path id="Path_623" d="M4247.095 1648.757l-.444-.126a.194.194 0 0 0-.169.019.241.241 0 0 0-.111.145l-2.674 9.581a.23.23 0 0 0 .018.181.235.235 0 0 0 .139.115l.445.126a.194.194 0 0 0 .169-.019.241.241 0 0 0 .111-.145l2.674-9.581a.228.228 0 0 0-.018-.182.236.236 0 0 0-.14-.114z" class="cls-1" data-name="Path 623" transform="translate(-4243.686 -1648.619)"/>
        </clipPath>
        <clipPath id="clip-path-2">
            <path id="Rectangle_1279" d="M0 0h13.62v13.62H0z" class="cls-1" data-name="Rectangle 1279"/>
        </clipPath>
        <clipPath id="clip-path-3">
            <path id="Path_624" d="M4241.553 1651.075a.239.239 0 0 0-.072-.171l-.358-.371a.22.22 0 0 0-.33 0l-3.341 3.458a.238.238 0 0 0 0 .341l3.341 3.458a.22.22 0 0 0 .33 0l.358-.371a.237.237 0 0 0 0-.341l-2.817-2.916 2.817-2.917a.238.238 0 0 0 .072-.17z" class="cls-1" data-name="Path 624" transform="translate(-4237.38 -1650.459)"/>
        </clipPath>
        <clipPath id="clip-path-5">
            <path id="Path_625" d="M4253.307 1653.991l-3.342-3.458a.222.222 0 0 0-.165-.075.225.225 0 0 0-.165.075l-.358.371a.239.239 0 0 0 0 .341l2.818 2.916-2.818 2.917a.239.239 0 0 0 0 .341l.358.371a.224.224 0 0 0 .165.074.221.221 0 0 0 .165-.074l3.342-3.458a.239.239 0 0 0 0-.341z" class="cls-1" data-name="Path 625" transform="translate(-4249.205 -1650.458)"/>
        </clipPath>
    </defs>
    <g id="Group_3452" data-name="Group 3452" transform="translate(-295.11 -77.388)">
        <g id="Group_3451" data-name="Group 3451" transform="translate(2.62 2.381)">
            <g id="Group_2456" data-name="Group 2456" transform="translate(302.262 82.007)">
                <g id="Group_2455" class="cls-2" data-name="Group 2455">
                    <g id="Group_2454" data-name="Group 2454" transform="translate(-4.772 -1.519)">
                        <g id="Group_2453" class="cls-3" data-name="Group 2453">
                            <path id="Rectangle_1278" d="M0 0h11.145v17.756H0z" class="cls-4" data-name="Rectangle 1278" transform="translate(.988 -2.264)"/>
                        </g>
                    </g>
                </g>
            </g>
            <g id="Group_2460" data-name="Group 2460" transform="translate(297.49 83.4)">
                <g id="Group_2459" class="cls-5" data-name="Group 2459">
                    <g id="Group_2458" data-name="Group 2458" transform="translate(0 -2.911)">
                        <g id="Group_2457" class="cls-3" data-name="Group 2457">
                            <path id="Rectangle_1280" d="M0 0h11.74v14.973H0z" class="cls-4" data-name="Rectangle 1280" transform="translate(-3.783 -.873)"/>
                        </g>
                    </g>
                </g>
            </g>
            <g id="Group_2464" data-name="Group 2464" transform="translate(306.438 83.399)">
                <g id="Group_2463" class="cls-6" data-name="Group 2463">
                    <g id="Group_2462" data-name="Group 2462" transform="translate(-8.948 -2.91)">
                        <g id="Group_2461" class="cls-3" data-name="Group 2461">
                            <path id="Rectangle_1282" d="M0 0h11.739v14.973H0z" class="cls-4" data-name="Rectangle 1282" transform="translate(5.164 -.873)"/>
                        </g>
                    </g>
                </g>
            </g>
        </g>
        <path id="Rectangle_1798" d="M0 0h24v24H0z" class="cls-1" data-name="Rectangle 1798" transform="translate(295.11 77.388)"/>
    </g>
</svg>
