<svg xmlns="http://www.w3.org/2000/svg" width="438.535" height="438.528" viewBox="0 0 438.535 438.528">
  <g id="undo-arrow" transform="translate(0 -0.005)">
    <path id="Path_2" data-name="Path 2" d="M421.125,134.191q-17.412-40.545-46.819-69.949T304.353,17.42a216.34,216.34,0,0,0-166.3-1.572A221.63,221.63,0,0,0,68.243,60.531L31.123,23.7q-8.567-8.852-19.7-4Q0,24.557,0,36.547V164.454A17.558,17.558,0,0,0,5.426,177.3a17.57,17.57,0,0,0,12.85,5.426H146.183q11.994,0,16.846-11.421,4.851-11.135-4-19.7l-39.115-39.4A141.906,141.906,0,0,1,165.6,83.227a144.977,144.977,0,0,1,53.675-10.138,142.461,142.461,0,0,1,56.674,11.563A144.8,144.8,0,0,1,353.891,162.6a144.7,144.7,0,0,1,0,113.346,144.8,144.8,0,0,1-77.944,77.944,142.425,142.425,0,0,1-56.674,11.561,144.655,144.655,0,0,1-115.345-56.816q-2-2.853-6.567-3.429a10.28,10.28,0,0,0-7.139,2.566l-39.114,39.4a8.461,8.461,0,0,0-2.426,5.853,10.209,10.209,0,0,0,1.858,6.427,214.307,214.307,0,0,0,75.373,58.382,217.765,217.765,0,0,0,93.362,20.7,213.359,213.359,0,0,0,85.078-17.416Q344.9,403.707,374.3,374.3t46.822-69.949a216.576,216.576,0,0,0,0-170.156Z" fill="#00326e"/>
  </g>
</svg>
