<svg xmlns="http://www.w3.org/2000/svg" width="52.957" height="53.012" viewBox="0 0 52.957 53.012">
  <path id="icon-pin" d="M.048,31.715a1,1,0,0,0,.609.727,24.433,24.433,0,0,0,18.361-.288L33.9,44.812a11.18,11.18,0,0,0,2.054,7.828,1.006,1.006,0,0,0,.725.372,1.036,1.036,0,0,0,.761-.292L52.691,37.466a1,1,0,0,0-.085-1.491A11.348,11.348,0,0,0,44.88,33.92L32.159,18.967c.868-2.23,3.52-10.27.307-18.337A1,1,0,0,0,30.83.293L16.26,14.863,2.69,1.293A1,1,0,1,0,1.276,2.707l13.57,13.57L.319,30.8A1,1,0,0,0,.048,31.715ZM17.7,16.257,31.121,2.832c2.437,8-.993,15.827-1.03,15.909a1,1,0,0,0,.15,1.059L43.7,35.622a1,1,0,0,0,.764.352.889.889,0,0,0,.154-.013,10.346,10.346,0,0,1,5.794.955l-13.5,13.5a9.38,9.38,0,0,1-.964-5.848,1,1,0,0,0-.338-.924L19.826,30.214a1.009,1.009,0,0,0-1.1-.128A22.848,22.848,0,0,1,2.852,31.1Z" transform="translate(-0.027 0)"/>
</svg>
