<?xml version="1.0" encoding="UTF-8"?>
<svg width="13px" height="14px" viewBox="0 0 13 14" version="1.1" xmlns="http://www.w3.org/2000/svg" xmlns:xlink="http://www.w3.org/1999/xlink">
    <!-- Generator: sketchtool 54.1 (76490) - https://sketchapp.com -->
    <title>79A892BC-BBA5-4911-A3DA-EB75B81B6A52</title>
    <desc>Created with sketchtool.</desc>
    <g id="Page-1" stroke="none" stroke-width="1" fill="none" fill-rule="evenodd">
        <g id="Steps---Outcome-1st-view" transform="translate(-1360.000000, -705.000000)" fill="#9B9B9B" fill-rule="nonzero">
            <g id="Steps" transform="translate(1297.000000, 0.000000)">
                <g id="Step1-Copy-6" transform="translate(18.000000, 691.000000)">
                    <g id="icon/-icon_function" transform="translate(45.000000, 14.000000)">
                        <g id="function-mathematical-symbol" transform="translate(0.777778, 0.000000)">
                            <path d="M2.28767827,13.9524199 C3.42774817,13.9524199 4.03297892,12.9342381 4.21096493,12.3327276 C4.21380409,12.3232311 4.21644745,12.3135388 4.218895,12.3036506 C4.63360828,10.5859583 5.29425162,7.86349669 5.78366419,5.88323091 L7.53474107,5.88323091 C7.86398582,5.88323091 8.13096483,5.61634979 8.13096483,5.28700712 C8.13096483,4.95766446 7.86398582,4.69078333 7.53474107,4.69078333 L6.08001384,4.69078333 C6.23665719,4.06685324 6.35130054,3.62247561 6.39643341,3.47082526 L6.44655928,3.30106302 C6.63139844,2.67027978 7.0642236,1.19274129 7.73358023,1.19274129 C8.35427951,1.19274129 8.44679699,2.14865739 8.45100678,2.19486719 C8.47744035,2.52215391 8.76292286,2.76935671 9.09099278,2.741063 C9.41935641,2.71600007 9.66509067,2.42904901 9.63973403,2.10088117 C9.58402773,1.37415388 9.11341236,0 7.73338442,0 C6.17076908,0 5.58413972,2.00288117 5.30227959,2.96565042 L5.25430756,3.12807001 C5.19703484,3.31858749 5.04675512,3.90560849 4.85075513,4.69078333 L2.76465727,4.69078333 C2.43531463,4.69078333 2.16843351,4.95766446 2.16843351,5.28700712 C2.16843351,5.61634979 2.43531463,5.88323091 2.76465727,5.88323091 L4.5553845,5.88323091 C3.9432027,8.36622398 3.15205587,11.6413429 3.0650209,12.0019164 C3.03251741,12.0963919 2.78805588,12.7598744 2.28797197,12.7598744 C1.52433563,12.7598744 1.19372025,11.6880422 1.19107689,11.6800143 C1.09944053,11.3638884 0.769608374,11.1809094 0.452503486,11.2731331 C0.136279718,11.3648674 -0.0460139838,11.6954828 0.0456223775,12.0118045 C0.254251743,12.7324618 0.96100697,13.9524199 2.28767827,13.9524199 Z" id="Path"></path>
                            <path d="M11.1299999,12.4148669 C11.4813705,12.4148669 11.7766432,12.1653145 11.7766432,11.7680278 C11.7766432,11.5834823 11.702825,11.4169508 11.5456922,11.2321117 L10.3076222,9.80920255 L11.5089789,8.40469904 C11.6198041,8.26606966 11.702825,8.11823749 11.702825,7.92419553 C11.702825,7.572727 11.4162656,7.31416755 11.0465873,7.31416755 C10.7972306,7.31416755 10.6033845,7.47120252 10.4367551,7.67483889 L9.50365018,8.89411163 L8.58895087,7.67464308 C8.4039159,7.44388783 8.21016765,7.31416755 7.9330068,7.31416755 C7.58153827,7.31416755 7.28616763,7.56391581 7.28616763,7.96120253 C7.28616763,8.14574798 7.36018162,8.31227945 7.51692288,8.49682491 L8.67206975,9.82751024 L7.4059998,11.3243354 C7.28587393,11.4629648 7.21215365,11.610797 7.21215365,11.8048389 C7.21215365,12.1562096 7.49861519,12.4146711 7.86799981,12.4146711 C8.11755226,12.4146711 8.31149632,12.2576362 8.47783199,12.0541956 L9.47545438,10.7423075 L10.4733705,12.0541956 C10.6587971,12.2855383 10.852839,12.4148669 11.1299999,12.4148669 Z" id="Path"></path>
                        </g>
                    </g>
                </g>
            </g>
        </g>
    </g>
</svg>