<svg xmlns="http://www.w3.org/2000/svg" width="548.157" height="365.442" viewBox="0 0 548.157 365.442">
  <g id="icon-eraser" transform="translate(0 -91.358)">
    <path id="Path_3" data-name="Path 3" d="M545.027,112.765A37.014,37.014,0,0,0,531.462,97.21a35.654,35.654,0,0,0-19.846-5.852H292.351a34.656,34.656,0,0,0-27.408,12.56L9.13,396.279a35.126,35.126,0,0,0-8.708,18.7,36.464,36.464,0,0,0,2.712,20.417,37.008,37.008,0,0,0,13.561,15.553A35.668,35.668,0,0,0,36.54,456.8H255.808a34.642,34.642,0,0,0,27.41-12.56L539.031,151.877a35.16,35.16,0,0,0,8.7-18.7A36.417,36.417,0,0,0,545.027,112.765ZM255.811,420.254H36.54l95.93-109.632H351.74Z" fill="#00326e"/>
  </g>
</svg>
