<svg xmlns="http://www.w3.org/2000/svg" width="50" height="55" viewBox="0 0 50 55">
  <path id="database" d="M52.354,8.51C51.2,4.22,42.577,0,27.5,0S3.8,4.22,2.646,8.51A.98.98,0,0,0,2.5,9V46a.94.94,0,0,0,.117.451C3.8,51.346,14.364,55,27.5,55c13.106,0,23.655-3.639,24.875-8.516A.988.988,0,0,0,52.5,46V9A.98.98,0,0,0,52.354,8.51ZM50.421,33.985a2.461,2.461,0,0,1-.116.363,2.873,2.873,0,0,1-.143.3,3.39,3.39,0,0,1-.231.369c-.066.093-.141.185-.219.277-.111.131-.229.262-.363.392-.081.079-.17.157-.26.236-.164.143-.335.285-.526.426-.082.061-.17.12-.257.18-.226.156-.462.311-.721.463-.068.041-.141.08-.212.12-.3.168-.609.335-.945.5-.043.021-.088.041-.132.061-.375.177-.767.351-1.186.519l-.036.014a38.766,38.766,0,0,1-8.561,2.17l-.051.007q-.987.146-2.026.259c-.113.012-.232.02-.346.032-.6.063-1.217.121-1.847.167-.288.021-.59.031-.883.049-.474.028-.943.059-1.429.076-.794.025-1.6.041-2.431.041s-1.637-.016-2.432-.044c-.486-.017-.955-.049-1.429-.076-.293-.017-.595-.028-.883-.049-.63-.046-1.242-.1-1.847-.167-.114-.012-.233-.02-.346-.032q-1.04-.114-2.026-.259l-.051-.007A38.766,38.766,0,0,1,9.925,38.2l-.036-.014c-.419-.168-.812-.342-1.186-.519-.043-.021-.089-.041-.132-.061-.336-.162-.647-.328-.945-.5-.07-.04-.144-.079-.212-.12-.259-.152-.495-.307-.721-.463-.086-.06-.175-.119-.257-.18-.191-.141-.362-.283-.526-.426-.089-.078-.179-.156-.26-.236a5.219,5.219,0,0,1-.363-.392c-.078-.092-.153-.184-.219-.277a3.729,3.729,0,0,1-.231-.369,3.094,3.094,0,0,1-.143-.3,2.423,2.423,0,0,1-.116-.363A2.164,2.164,0,0,1,4.5,33.5a2.135,2.135,0,0,1,.031-.338,1,1,0,0,0-.031-.445V25.293c.028.026.063.051.092.077.218.192.44.383.69.567C9.049,28.786,16.582,31,27.5,31c10.872,0,18.386-2.2,22.169-5.028a10.181,10.181,0,0,0,.83-.678h0v7.424a1,1,0,0,0-.031.445,2.023,2.023,0,0,1,.031.338A2.162,2.162,0,0,1,50.421,33.985ZM50.5,13.293v7.424a1,1,0,0,0-.031.445,2.023,2.023,0,0,1,.031.338,2.162,2.162,0,0,1-.079.485,2.461,2.461,0,0,1-.116.363,2.873,2.873,0,0,1-.143.3,3.39,3.39,0,0,1-.231.369c-.066.093-.141.185-.219.277-.111.131-.229.262-.363.392-.081.079-.17.157-.26.236-.164.143-.335.285-.526.426-.082.061-.17.12-.257.18-.226.156-.462.311-.721.463-.068.041-.141.08-.212.12-.3.168-.609.335-.945.5-.043.021-.088.041-.132.061-.375.177-.767.351-1.186.519l-.036.014a38.766,38.766,0,0,1-8.561,2.17l-.051.007q-.987.146-2.026.259c-.113.012-.232.02-.346.032-.6.063-1.217.121-1.847.167-.288.021-.59.031-.883.049-.474.028-.943.059-1.429.076-.794.025-1.6.041-2.431.041s-1.637-.016-2.432-.044c-.486-.017-.955-.049-1.429-.076-.293-.017-.595-.028-.883-.049-.63-.046-1.242-.1-1.847-.167-.114-.012-.233-.02-.346-.032q-1.04-.114-2.026-.259l-.051-.007A38.766,38.766,0,0,1,9.925,26.2l-.036-.014c-.419-.168-.812-.342-1.186-.519-.043-.021-.089-.041-.132-.061-.336-.162-.647-.328-.945-.5-.07-.04-.144-.079-.212-.12-.259-.152-.495-.307-.721-.463-.086-.06-.175-.119-.257-.18-.191-.141-.362-.283-.526-.426-.089-.078-.179-.156-.26-.236a5.219,5.219,0,0,1-.363-.392c-.078-.092-.153-.184-.219-.277a3.729,3.729,0,0,1-.231-.369,3.094,3.094,0,0,1-.143-.3,2.423,2.423,0,0,1-.116-.363A2.164,2.164,0,0,1,4.5,21.5a2.135,2.135,0,0,1,.031-.338,1,1,0,0,0-.031-.445V13.293c.12.109.257.216.387.324.072.06.139.12.215.18.3.236.624.469.975.7.073.047.155.093.231.14q.441.274.932.538c.121.065.242.129.367.193q.547.279,1.151.542c.066.029.126.059.193.087.469.2.967.389,1.485.573.143.051.293.1.44.149q.618.208,1.279.4c.159.046.315.094.478.138.585.162,1.189.316,1.823.458.087.02.181.036.269.055.559.122,1.139.235,1.735.341.2.036.407.07.613.1q.85.14,1.75.256c.154.02.3.043.457.062.744.09,1.514.167,2.305.233.195.016.4.028.6.042q.949.069,1.942.114c.241.011.481.022.727.031.862.029,1.74.05,2.65.05s1.788-.021,2.65-.05c.245-.009.485-.02.727-.031q.993-.045,1.942-.114c.2-.015.4-.026.6-.042.791-.065,1.561-.143,2.305-.233.156-.019.3-.042.457-.062q.9-.117,1.75-.256c.206-.034.411-.068.613-.1.6-.106,1.176-.219,1.735-.341.088-.019.182-.036.269-.055.634-.142,1.238-.3,1.823-.458.163-.045.319-.092.478-.138q.662-.193,1.279-.4c.147-.05.3-.1.44-.149.518-.184,1.017-.374,1.485-.573.067-.028.127-.058.193-.087q.6-.264,1.151-.542c.125-.064.247-.128.367-.193q.49-.263.932-.538c.076-.047.158-.093.231-.14.351-.227.675-.459.975-.7.075-.06.142-.12.215-.18C50.243,13.509,50.38,13.4,50.5,13.293ZM27.5,2c13.555,0,23,3.952,23,7.5S41.055,17,27.5,17s-23-3.952-23-7.5S13.945,2,27.5,2Zm23,43.7a1.02,1.02,0,0,0-.032.135C49.9,49.3,40.536,53,27.5,53S5.1,49.3,4.532,45.838a1.089,1.089,0,0,0-.032-.131V37.293c.028.026.063.051.092.077.218.192.44.383.69.567C9.049,40.786,16.582,43,27.5,43c10.872,0,18.386-2.2,22.169-5.028a10.18,10.18,0,0,0,.83-.678h0Z" transform="translate(-2.5)" fill="#9b9b9b"/>
</svg>
