<svg id="undo-arrow" xmlns="http://www.w3.org/2000/svg" width="438.535" height="438.528" viewBox="0 0 438.535 438.528">
  <path id="Path_2" data-name="Path 2" d="M17.41,134.191Q34.822,93.646,64.229,64.242T134.182,17.42a216.34,216.34,0,0,1,166.3-1.572,221.63,221.63,0,0,1,69.8,44.683L407.412,23.7q8.566-8.852,19.7-4,11.422,4.86,11.422,16.85V164.454a18.532,18.532,0,0,1-18.276,18.273H292.352q-11.994,0-16.846-11.421-4.851-11.135,4-19.7l39.115-39.4a141.906,141.906,0,0,0-45.683-28.98,144.977,144.977,0,0,0-53.675-10.138,142.461,142.461,0,0,0-56.674,11.563A144.8,144.8,0,0,0,84.644,162.6a144.7,144.7,0,0,0,0,113.346,144.8,144.8,0,0,0,77.944,77.944,142.425,142.425,0,0,0,56.674,11.561,144.655,144.655,0,0,0,115.345-56.816q2-2.853,6.567-3.429a10.28,10.28,0,0,1,7.139,2.566l39.114,39.4a8.461,8.461,0,0,1,2.426,5.853,10.209,10.209,0,0,1-1.858,6.427,214.307,214.307,0,0,1-75.373,58.382,217.765,217.765,0,0,1-93.362,20.7,213.359,213.359,0,0,1-85.078-17.416Q93.635,403.707,64.233,374.3T17.411,304.347a216.576,216.576,0,0,1,0-170.156Z" transform="translate(0 -0.005)" fill="#00326e"/>
</svg>
